<svg width="16" height="16" viewBox="0 0 16 16" fill="none" xmlns="http://www.w3.org/2000/svg">
<g clip-path="url(#clip0_1098_9)">
<path fill-rule="evenodd" clip-rule="evenodd" d="M8 0C3.5875 0 0 3.5875 0 8C0 12.4125 3.5875 16 8 16C12.4125 16 16 12.4125 16 8C16 3.5875 12.4125 0 8 0Z" fill="white"/>
<path fill-rule="evenodd" clip-rule="evenodd" d="M11.8687 5.30311C12.0624 5.49686 12.0624 5.81561 11.8687 6.00936L7.18115 10.6969C7.08428 10.7937 6.95615 10.8437 6.82803 10.8437C6.6999 10.8437 6.57178 10.7937 6.4749 10.6969L4.13115 8.35311C3.9374 8.15936 3.9374 7.84061 4.13115 7.64686C4.3249 7.45311 4.64365 7.45311 4.8374 7.64686L6.82803 9.63749L11.1624 5.30311C11.3562 5.10624 11.6749 5.10624 11.8687 5.30311Z" fill="#594CFF"/>
</g>
<defs>
<clipPath id="clip0_1098_9">
<rect width="16" height="16" fill="white"/>
</clipPath>
</defs>
</svg>
