<svg width="200" height="69" viewBox="0 0 200 69" fill="none" xmlns="http://www.w3.org/2000/svg">
<g opacity="0.9">
<mask id="mask0_815_251" style="mask-type:luminance" maskUnits="userSpaceOnUse" x="0" y="0" width="65" height="69">
<path d="M0 0H64.27V69H0V0Z" fill="white"/>
</mask>
<g mask="url(#mask0_815_251)">
<path d="M54.8882 14.4455C58.7302 16.6745 60.9799 20.6114 61.2332 24.7483L64.0167 26.3625C64.3182 20.6932 61.5076 15.0603 56.2785 12.0288C51.0493 8.99738 44.7888 9.36988 40.0481 12.4649C39.264 12.9767 38.5192 13.5643 37.8316 14.2245C37.1169 14.9028 36.4595 15.6599 35.8744 16.4928L44.1705 21.3019C43.7514 22.1287 43.2387 22.9131 42.6416 23.6399L35.0994 19.2668L35.6633 18.9397C35.4341 17.9797 35.1115 17.0318 34.6863 16.1051L30.7719 18.3734C30.4221 17.5073 29.9909 16.6745 29.4963 15.8931L33.299 13.6884C32.711 12.8556 32.0566 12.1015 31.3419 11.4201L27.6748 13.5461C26.4565 12.2499 25.018 11.1627 23.4197 10.3481V13.5734C24.05 13.9943 24.6411 14.4667 25.1869 14.9876L20.3467 17.792C20.1779 16.8108 20.1236 15.8205 20.1869 14.8423C20.4372 10.7054 22.6899 6.76542 26.5319 4.53951C30.3769 2.31058 34.8973 2.32269 38.5915 4.17307L41.372 2.55891C36.6344 -0.536155 30.3738 -0.911682 25.1417 2.12282C19.9125 5.15429 17.1019 10.7842 17.4065 16.4564C17.4547 17.3952 17.5904 18.3341 17.8136 19.2638C18.0428 20.2238 18.3654 21.1717 18.7906 22.0984L27.0837 17.2892C27.5874 18.0676 28.0096 18.9034 28.3352 19.7847L20.7961 24.1578V23.5036C19.8522 23.222 18.8721 23.0312 17.8618 22.9343V27.4739C16.936 27.3467 16.0072 27.3043 15.0814 27.3437V22.9343C14.0711 23.0312 13.091 23.222 12.1501 23.5036V27.7555C10.4222 28.1674 8.76655 28.8761 7.26475 29.8573L10.0482 31.4684C10.7237 31.1323 11.4264 30.8536 12.1501 30.6416V36.2533C11.2183 35.9081 10.3377 35.4599 9.52349 34.9178C6.07959 32.6283 3.80879 28.7034 3.80879 24.2456C3.80879 19.7877 6.07959 15.8629 9.52349 13.5764V10.345C4.4843 12.9192 1.03136 18.1766 1.03136 24.2456C1.03136 30.3085 4.4843 35.5659 9.52349 38.1401C10.3558 38.5701 11.2364 38.9214 12.1501 39.1909C13.091 39.4696 14.0711 39.6634 15.0814 39.7573V30.1389C16.0042 30.0905 16.936 30.142 17.8618 30.2994V39.0425L17.2979 38.7155C16.5832 39.3938 15.9288 40.151 15.3407 40.9838L19.2551 43.2521C18.6821 43.994 18.1815 44.7814 17.7533 45.6052L13.9535 43.4005C13.5283 44.3272 13.2026 45.2751 12.9734 46.2351L16.6435 48.3611C16.1338 50.0691 15.9167 51.8619 16.0132 53.6578L18.7937 52.0467C18.8419 51.2896 18.9535 50.5385 19.1314 49.8056L23.9716 52.61C23.2086 53.2459 22.3793 53.788 21.5048 54.2241C17.8106 56.0745 13.2901 56.0836 9.4481 53.8577C5.60613 51.6287 3.35342 47.6918 3.10011 43.5519L0.316642 41.9408C0.018091 47.61 2.82568 53.2429 8.05787 56.2744C13.287 59.3089 19.5476 58.9333 24.2852 55.8383C25.0723 55.3265 25.8141 54.739 26.5047 54.0788C27.2194 53.3974 27.8738 52.6402 28.4619 51.8105L20.1658 47.0013C20.585 46.1745 21.0946 45.3902 21.6947 44.6633L29.2339 49.0364L28.67 49.3635C28.8992 50.3235 29.2249 51.2714 29.6471 52.1981L33.5614 49.9268C33.9142 50.7959 34.3425 51.6287 34.837 52.4101L31.0373 54.6148C31.6223 55.4446 32.2797 56.2017 32.9914 56.8831L36.6585 54.7571C37.8798 56.0533 39.3153 57.1375 40.9136 57.9552V54.7299C40.2833 54.3089 39.6953 53.8365 39.1494 53.3156L43.9896 50.5112C44.1585 51.4925 44.2097 52.4828 44.1494 53.461C43.8961 57.5978 41.6464 61.5378 37.8014 63.7637C33.9595 65.9926 29.439 65.9805 25.7448 64.1301L22.9613 65.7443C27.6989 68.8394 33.9625 69.2119 39.1917 66.1804C44.4239 63.1489 47.2314 57.516 46.9299 51.8468C46.8816 50.908 46.7459 49.9692 46.5228 49.0394C46.2936 48.0794 45.9679 47.1315 45.5457 46.2048L37.2496 51.014C36.746 50.2357 36.3238 49.3998 35.9981 48.5185L43.5403 44.1455V44.7996C44.4812 45.0813 45.4612 45.272 46.4715 45.369V40.8293C47.4003 40.9565 48.3292 40.9989 49.2519 40.9595V45.369C50.2622 45.272 51.2423 45.0813 52.1862 44.7996V40.5477C53.9142 40.1358 55.5698 39.4272 57.0716 38.4459L54.2881 36.8318C53.6096 37.171 52.9069 37.4466 52.1862 37.6616V32.0499C53.118 32.3951 53.9986 32.8433 54.8128 33.3854C58.2537 35.6749 60.5245 39.5998 60.5245 44.0576C60.5245 48.5125 58.2567 52.4404 54.8128 54.7268V57.9552C59.852 55.381 63.305 50.1236 63.305 44.0576C63.305 37.9917 59.852 32.7343 54.8128 30.1601C53.9775 29.7331 53.0999 29.3818 52.1862 29.1123C51.2423 28.8306 50.2622 28.6368 49.2519 28.5429V38.1613C48.3292 38.2097 47.3973 38.1582 46.4715 38.0038V29.2576L47.0384 29.5877C47.7501 28.9063 48.4076 28.1492 48.9926 27.3194L45.0783 25.0481C45.6512 24.3061 46.1549 23.5188 46.5801 22.695L50.3828 24.8997C50.805 23.976 51.1307 23.0281 51.3599 22.0651L47.6928 19.9422C48.1995 18.2341 48.4196 16.4413 48.3231 14.6424L45.5397 16.2566C45.4944 17.0137 45.3798 17.7617 45.2049 18.4976L40.3648 15.6902C41.1277 15.0543 41.954 14.5122 42.8286 14.0761C46.5258 12.2257 51.0463 12.2166 54.8882 14.4455ZM36.0403 23.2129L40.419 25.7507C40.03 26.0384 39.6229 26.311 39.1947 26.5593C38.1995 27.1377 37.1561 27.5617 36.0976 27.8464C35.989 27.2922 35.9166 26.7289 35.8805 26.1626C35.8201 25.1844 35.8714 24.1941 36.0403 23.2129ZM34.0922 19.8483C33.8539 20.4721 33.6579 21.1051 33.5071 21.7411C33.284 22.6708 33.1483 23.6096 33.1 24.5484C33.0337 25.7992 33.1181 27.0439 33.3473 28.2613C32.6989 28.2885 32.0506 28.2643 31.4112 28.1916C31.7399 26.9318 31.9148 25.6053 31.9148 24.2425C31.9148 23.228 31.8153 22.2347 31.6314 21.2747L34.0922 19.8483ZM35.8533 34.2849C35.0813 35.2449 34.4239 36.2957 33.8961 37.4223C32.6838 37.2315 31.4444 37.1861 30.211 37.2891C29.7677 36.1413 29.1887 35.042 28.483 34.0184C29.255 33.0583 29.9124 32.0075 30.4402 30.8779C31.6525 31.0687 32.8919 31.1171 34.1253 31.0141C34.5686 32.1619 35.1446 33.2612 35.8533 34.2849ZM29.05 22.7738C29.1042 23.2553 29.1344 23.7459 29.1344 24.2456C29.1344 25.3994 28.9806 26.5169 28.6941 27.5799C28.1634 27.3982 27.6416 27.1801 27.135 26.9288C26.2605 26.4927 25.4312 25.9506 24.6712 25.3116L29.05 22.7738ZM20.7961 25.3267C21.2152 25.8446 21.6646 26.3291 22.138 26.7804C22.8256 27.4406 23.5705 28.0281 24.3546 28.5399C25.398 29.2213 26.5168 29.7725 27.6808 30.1844C27.3793 30.7598 27.0355 31.3109 26.6495 31.8318C25.7267 30.9172 24.6742 30.1026 23.4981 29.4182C22.6205 28.9124 21.7189 28.5005 20.7961 28.1795V25.3267ZM22.1079 31.8349C23.1031 32.4133 23.9897 33.1038 24.7647 33.8851C24.3425 34.2576 23.8932 34.6028 23.4197 34.9148C22.6055 35.4569 21.7279 35.9081 20.7961 36.2503V31.1747C21.2394 31.3685 21.6797 31.5865 22.1079 31.8349ZM20.7961 39.1909C21.7098 38.9214 22.5874 38.5671 23.4227 38.1401C24.5325 37.5737 25.5669 36.8772 26.5017 36.0686C26.8485 36.6198 27.1501 37.1952 27.4094 37.7888C26.1579 38.134 24.9275 38.6428 23.7514 39.3242C22.8739 39.833 22.0687 40.4144 21.3329 41.0534L18.8721 39.627C19.5265 39.521 20.1688 39.3757 20.7961 39.1909ZM28.293 45.0903L23.9143 42.5525C24.3033 42.2648 24.7104 41.9922 25.1417 41.7439C26.1368 41.1655 27.1772 40.7415 28.2387 40.4568C28.3443 41.011 28.4197 41.5743 28.4529 42.1406C28.5132 43.1188 28.4619 44.1091 28.293 45.0903ZM30.2412 48.4549C30.4794 47.8311 30.6754 47.1981 30.8262 46.5622C31.0494 45.6324 31.1851 44.6936 31.2333 43.7518C31.2997 42.5041 31.2152 41.2594 30.986 40.0419C31.6344 40.0147 32.2828 40.0389 32.9221 40.1116C32.5934 41.3714 32.4185 42.6979 32.4185 44.0607C32.4185 45.0752 32.518 46.0685 32.7019 47.0285L30.2412 48.4549ZM35.2864 45.5295C35.2291 45.0449 35.2019 44.5573 35.2019 44.0576C35.2019 42.9038 35.3557 41.7863 35.6392 40.7203C36.173 40.905 36.6917 41.1231 37.1983 41.3744C38.0729 41.8105 38.9022 42.3526 39.6651 42.9886L35.2864 45.5295ZM43.5372 42.9765C43.1181 42.4586 42.6718 41.971 42.1983 41.5198C41.5107 40.8626 40.7658 40.2751 39.9788 39.7633C38.9353 39.0789 37.8195 38.5307 36.6525 38.1189C36.9571 37.5435 37.3008 36.9893 37.6838 36.4714C38.6066 37.389 39.6621 38.2006 40.8382 38.882C41.7128 39.3908 42.6175 39.8027 43.5372 40.1207V42.9765ZM42.2284 36.4684C41.2333 35.8899 40.3437 35.1964 39.5686 34.4181C39.9938 34.0456 40.4432 33.7004 40.9136 33.3884C41.7278 32.8464 42.6084 32.3951 43.5403 32.0529V37.1286C43.0939 36.9347 42.6567 36.7167 42.2284 36.4684ZM43.5372 29.1123C42.6235 29.3818 41.7459 29.7361 40.9136 30.1632C39.8008 30.7295 38.7695 31.426 37.8346 32.2346C37.4848 31.6804 37.1832 31.108 36.9269 30.5145C38.1784 30.1692 39.4058 29.6574 40.5849 28.979C41.4595 28.4703 42.2677 27.8888 43.0035 27.2498L45.4643 28.6762C44.8068 28.7822 44.1645 28.9275 43.5372 29.1123Z" fill="white"/>
</g>
<path d="M73.086 20.0122H75.8725V32.126H73.086V20.0122Z" fill="white"/>
<path d="M84.2433 32.3323C83.2844 32.3323 82.3616 32.202 81.4689 31.9446C80.5823 31.6872 79.8706 31.348 79.3338 30.9271L80.2868 28.8193C80.7994 29.2009 81.4116 29.5067 82.1203 29.7399C82.835 29.9671 83.5467 30.0791 84.2554 30.0791C85.0515 30.0791 85.6366 29.964 86.0166 29.7278C86.3935 29.4946 86.5835 29.1797 86.5835 28.7829C86.5835 28.5013 86.4689 28.2681 86.2458 28.0803C86.0196 27.8865 85.7301 27.7351 85.3772 27.62C85.0304 27.4989 84.56 27.3717 83.9659 27.2324C83.0491 27.0143 82.2952 26.7963 81.7102 26.5782C81.1221 26.3541 80.6185 26.0028 80.2023 25.5243C79.7832 25.0398 79.5751 24.3947 79.5751 23.5861C79.5751 22.8775 79.7621 22.2385 80.142 21.6722C80.519 21.0998 81.089 20.6485 81.8549 20.3154C82.6179 19.9762 83.5497 19.8066 84.6535 19.8066C85.4255 19.8066 86.1764 19.9005 86.9092 20.0853C87.648 20.273 88.2904 20.5395 88.8392 20.8848L87.9828 23.0047C86.864 22.3748 85.7512 22.0598 84.6414 22.0598C83.8604 22.0598 83.2813 22.19 82.9044 22.4474C82.5335 22.6988 82.3495 23.0289 82.3495 23.4408C82.3495 23.8617 82.5606 24.1737 82.9888 24.3735C83.4231 24.5764 84.0805 24.7733 84.9671 24.9671C85.8839 25.1852 86.6348 25.4032 87.2228 25.6212C87.8079 25.8393 88.3115 26.1876 88.7307 26.663C89.1468 27.1324 89.3579 27.7714 89.3579 28.577C89.3579 29.2735 89.1649 29.9065 88.7789 30.4789C88.3929 31.0452 87.8139 31.4964 87.0419 31.8356C86.2759 32.1657 85.3441 32.3323 84.2433 32.3323Z" fill="white"/>
<path d="M100.5 32.126L98.1836 28.7583H95.6142V32.126H92.8277V20.0122H98.0388C99.1064 20.0122 100.035 20.1939 100.825 20.5573C101.612 20.9147 102.216 21.4235 102.635 22.0837C103.06 22.7378 103.274 23.5131 103.274 24.4095C103.274 25.3059 103.057 26.0812 102.623 26.7353C102.194 27.3895 101.588 27.8922 100.801 28.2375L103.503 32.126H100.5ZM100.451 24.4095C100.451 23.7311 100.234 23.2102 99.8 22.8468C99.3657 22.4834 98.7264 22.3017 97.882 22.3017H95.6142V26.5173H97.882C98.7264 26.5173 99.3657 26.3356 99.8 25.9722C100.234 25.6027 100.451 25.0818 100.451 24.4095Z" fill="white"/>
<path d="M114.977 29.5336H109.38L108.306 32.126H105.447L110.827 20.0122H113.577L118.969 32.126H116.038L114.977 29.5336ZM114.096 27.4016L112.178 22.762L110.272 27.4016H114.096Z" fill="white"/>
<path d="M125.742 32.3323C124.783 32.3323 123.86 32.202 122.967 31.9446C122.081 31.6872 121.369 31.348 120.832 30.9271L121.785 28.8193C122.298 29.2009 122.91 29.5067 123.619 29.7399C124.333 29.9671 125.045 30.0791 125.754 30.0791C126.55 30.0791 127.135 29.964 127.515 29.7278C127.892 29.4946 128.082 29.1797 128.082 28.7829C128.082 28.5013 127.967 28.2681 127.744 28.0803C127.518 27.8865 127.228 27.7351 126.876 27.62C126.529 27.4989 126.058 27.3717 125.464 27.2324C124.547 27.0143 123.794 26.7963 123.209 26.5782C122.62 26.3541 122.117 26.0028 121.701 25.5243C121.282 25.0398 121.073 24.3947 121.073 23.5861C121.073 22.8775 121.26 22.2385 121.64 21.6722C122.017 21.0998 122.587 20.6485 123.353 20.3154C124.116 19.9762 125.048 19.8066 126.152 19.8066C126.924 19.8066 127.675 19.9005 128.408 20.0853C129.146 20.273 129.789 20.5395 130.338 20.8848L129.481 23.0047C128.362 22.3748 127.25 22.0598 126.14 22.0598C125.359 22.0598 124.78 22.19 124.403 22.4474C124.032 22.6988 123.848 23.0289 123.848 23.4408C123.848 23.8617 124.059 24.1737 124.487 24.3735C124.921 24.5764 125.579 24.7733 126.465 24.9671C127.382 25.1852 128.133 25.4032 128.721 25.6212C129.306 25.8393 129.81 26.1876 130.229 26.663C130.645 27.1324 130.856 27.7714 130.856 28.577C130.856 29.2735 130.663 29.9065 130.277 30.4789C129.891 31.0452 129.312 31.4964 128.54 31.8356C127.774 32.1657 126.842 32.3323 125.742 32.3323Z" fill="white"/>
<path d="M137.112 22.2654V25.4634H142.697V27.7166H137.112V32.126H134.326V20.0122H143.433V22.2654H137.112Z" fill="white"/>
<path d="M154.821 29.5336H149.224L148.151 32.126H145.292L150.672 20.0122H153.422L158.814 32.126H155.883L154.821 29.5336ZM153.941 27.4016L152.023 22.762L150.117 27.4016H153.941Z" fill="white"/>
<path d="M169.302 32.126L166.986 28.7583H164.416V32.126H161.63V20.0122H166.841C167.908 20.0122 168.837 20.1939 169.627 20.5573C170.414 20.9147 171.017 21.4235 171.437 22.0837C171.862 22.7378 172.076 23.5131 172.076 24.4095C172.076 25.3059 171.859 26.0812 171.425 26.7353C170.996 27.3895 170.39 27.8922 169.603 28.2375L172.305 32.126H169.302ZM169.253 24.4095C169.253 23.7311 169.036 23.2102 168.602 22.8468C168.168 22.4834 167.528 22.3017 166.684 22.3017H164.416V26.5173H166.684C167.528 26.5173 168.168 26.3356 168.602 25.9722C169.036 25.6027 169.253 25.0818 169.253 24.4095Z" fill="white"/>
<path d="M185.166 29.8728V32.126H175.841V20.0122H184.949V22.2654H178.604V24.8941H184.213V27.0745H178.604V29.8728H185.166Z" fill="white"/>
<path d="M200 20.0122V32.126H197.708L191.701 24.7729V32.126H188.951V20.0122H191.255L197.25 27.3653V20.0122H200Z" fill="white"/>
<path d="M78.3081 48.6482C77.3913 48.6482 76.562 48.4514 75.8231 48.0547C75.0903 47.6519 74.5143 47.1037 74.0982 46.4072C73.6881 45.7137 73.483 44.9354 73.483 44.0692C73.483 43.197 73.6881 42.4157 74.0982 41.7192C74.5143 41.0257 75.0903 40.4805 75.8231 40.0838C76.562 39.6901 77.3913 39.4902 78.3081 39.4902C79.2158 39.4902 80.036 39.6901 80.7688 40.0838C81.4986 40.4805 82.0746 41.0257 82.4938 41.7192C82.91 42.4157 83.1211 43.197 83.1211 44.0692C83.1211 44.9354 82.91 45.7137 82.4938 46.4072C82.0746 47.1037 81.4986 47.6519 80.7688 48.0547C80.036 48.4514 79.2158 48.6482 78.3081 48.6482ZM78.3081 46.8917C78.8207 46.8917 79.2882 46.7767 79.7073 46.5404C80.1325 46.2982 80.4612 45.965 80.6965 45.535C80.9377 45.0989 81.0584 44.6113 81.0584 44.0692C81.0584 43.5211 80.9377 43.0335 80.6965 42.6035C80.4612 42.1674 80.1325 41.8342 79.7073 41.598C79.2882 41.3558 78.8207 41.2346 78.3081 41.2346C77.7833 41.2346 77.3099 41.3558 76.8847 41.598C76.4655 41.8342 76.1368 42.1674 75.8955 42.6035C75.6603 43.0335 75.5457 43.5211 75.5457 44.0692C75.5457 44.6113 75.6603 45.0989 75.8955 45.535C76.1368 45.965 76.4655 46.2982 76.8847 46.5404C77.3099 46.7767 77.7833 46.8917 78.3081 46.8917Z" fill="white"/>
<path d="M88.6957 48.6482C87.9961 48.6482 87.3206 48.5544 86.6692 48.3696C86.0178 48.1758 85.4931 47.9275 85.101 47.6186L85.8007 46.0801C86.1776 46.3557 86.6239 46.5768 87.1396 46.7464C87.6613 46.916 88.183 47.0008 88.7078 47.0008C89.2868 47.0008 89.712 46.916 89.9864 46.7464C90.2669 46.5707 90.4086 46.3406 90.4086 46.0559C90.4086 45.8378 90.3242 45.6622 90.1553 45.5229C89.9924 45.3866 89.7844 45.2776 89.528 45.1958C89.2687 45.108 88.9249 45.0141 88.4906 44.9172C87.8212 44.7567 87.2723 44.5962 86.8381 44.4326C86.4098 44.2721 86.0449 44.0147 85.7404 43.6574C85.4328 43.303 85.282 42.8306 85.282 42.2401C85.282 41.7313 85.4177 41.2679 85.6921 40.847C85.9726 40.4291 86.3917 40.0959 86.9466 39.8536C87.5075 39.6114 88.1921 39.4902 88.9973 39.4902C89.5582 39.4902 90.107 39.5599 90.6378 39.6962C91.1746 39.8264 91.6511 40.0172 92.0612 40.2655L91.4219 41.8282C90.6076 41.3618 89.7964 41.1256 88.9852 41.1256C88.4122 41.1256 87.99 41.2195 87.7186 41.4042C87.4442 41.592 87.3085 41.8373 87.3085 42.1431C87.3085 42.443 87.4653 42.6701 87.7789 42.8215C88.0926 42.9669 88.5751 43.1122 89.2265 43.2576C89.8929 43.4212 90.4388 43.5817 90.867 43.7422C91.3012 43.8966 91.6692 44.148 91.9768 44.4932C92.2813 44.8415 92.4351 45.3109 92.4351 45.8984C92.4351 46.4072 92.2934 46.8736 92.0129 47.2915C91.7295 47.7034 91.3073 48.0365 90.7464 48.2848C90.1824 48.5271 89.4979 48.6482 88.6957 48.6482Z" fill="white"/>
<path d="M94.9694 39.6357H97.0079V46.8192H101.423V48.4909H94.9694V39.6357Z" fill="white"/>
<path d="M107.98 48.6482C107.063 48.6482 106.234 48.4514 105.495 48.0547C104.762 47.6519 104.186 47.1037 103.77 46.4072C103.36 45.7137 103.155 44.9354 103.155 44.0692C103.155 43.197 103.36 42.4157 103.77 41.7192C104.186 41.0257 104.762 40.4805 105.495 40.0838C106.234 39.6901 107.063 39.4902 107.98 39.4902C108.888 39.4902 109.708 39.6901 110.441 40.0838C111.171 40.4805 111.747 41.0257 112.166 41.7192C112.582 42.4157 112.793 43.197 112.793 44.0692C112.793 44.9354 112.582 45.7137 112.166 46.4072C111.747 47.1037 111.171 47.6519 110.441 48.0547C109.708 48.4514 108.888 48.6482 107.98 48.6482ZM107.98 46.8917C108.493 46.8917 108.96 46.7767 109.379 46.5404C109.804 46.2982 110.133 45.965 110.368 45.535C110.61 45.0989 110.73 44.6113 110.73 44.0692C110.73 43.5211 110.61 43.0335 110.368 42.6035C110.133 42.1674 109.804 41.8342 109.379 41.598C108.96 41.3558 108.493 41.2346 107.98 41.2346C107.455 41.2346 106.982 41.3558 106.557 41.598C106.137 41.8342 105.809 42.1674 105.567 42.6035C105.332 43.0335 105.218 43.5211 105.218 44.0692C105.218 44.6113 105.332 45.0989 105.567 45.535C105.809 45.965 106.137 46.2982 106.557 46.5404C106.982 46.7767 107.455 46.8917 107.98 46.8917Z" fill="white"/>
</g>
</svg>
