<svg width="393" height="54" viewBox="0 0 393 54" fill="none" xmlns="http://www.w3.org/2000/svg">
<rect width="393" height="54" fill="white"/>
<path d="M57.6906 23.0628C56.8328 23.0628 56.0664 23.2454 55.3912 23.6106C54.7216 23.9703 54.1959 24.4684 53.8141 25.1048C53.4378 25.7356 53.2496 26.4578 53.2496 27.2713V27.2879C53.2496 28.0405 53.4156 28.7156 53.7477 29.3133C54.0852 29.9109 54.5473 30.3813 55.1339 30.7244C55.7205 31.0675 56.3956 31.239 57.1593 31.239C57.7127 31.239 58.1941 31.156 58.6036 30.99C59.0187 30.824 59.3673 30.6054 59.6495 30.3343C59.9318 30.0631 60.1448 29.7698 60.2887 29.4544H60.5792V27.2464H60.0812V27.263C60.0812 27.7112 59.976 28.1124 59.7657 28.4666C59.5555 28.8207 59.2705 29.0974 58.9108 29.2967C58.5511 29.4959 58.1443 29.5955 57.6906 29.5955C57.2368 29.5955 56.8328 29.4931 56.4786 29.2884C56.1245 29.0836 55.845 28.8041 55.6403 28.45C55.4355 28.0903 55.3331 27.678 55.3331 27.2132V27.1966C55.3331 26.7483 55.441 26.3443 55.6569 25.9846C55.8727 25.6194 56.1604 25.3316 56.5201 25.1214C56.8798 24.9111 57.2755 24.8059 57.7072 24.8059C58.1554 24.8059 58.5566 24.9138 58.9108 25.1297C59.2705 25.3455 59.5555 25.6388 59.7657 26.0095C59.976 26.3803 60.0812 26.7926 60.0812 27.2464L60.4547 29.2468C60.4547 29.3243 60.4547 29.4046 60.4547 29.4876C60.4547 29.565 60.4519 29.6453 60.4464 29.7283C60.4187 30.492 60.3025 31.1892 60.0978 31.8201C59.8986 32.4454 59.597 32.9462 59.193 33.3225C58.7946 33.6933 58.2799 33.8787 57.649 33.8787C57.3004 33.8787 56.985 33.8233 56.7028 33.7127C56.4261 33.5965 56.1881 33.4332 55.9889 33.2229C55.7952 33.0126 55.6458 32.7691 55.5406 32.4925L55.5074 32.4094H53.4073L53.424 32.5008C53.5568 33.1095 53.8141 33.6518 54.1959 34.1277C54.5833 34.5981 55.0703 34.9689 55.6569 35.24C56.249 35.5056 56.913 35.6385 57.649 35.6385C58.6507 35.6385 59.5112 35.3839 60.2306 34.8748C60.9555 34.3601 61.5117 33.6241 61.899 32.6668C62.2864 31.7094 62.4801 30.5584 62.4801 29.2136V29.197C62.4801 28.1124 62.3528 27.1855 62.0983 26.4163C61.8437 25.6415 61.4923 25.0079 61.0441 24.5154C60.6014 24.0174 60.0922 23.6521 59.5167 23.4197C58.9412 23.1817 58.3325 23.0628 57.6906 23.0628ZM66.2487 33.7293C66.6305 33.7293 66.9459 33.6048 67.1949 33.3557C67.444 33.1012 67.5685 32.7913 67.5685 32.426C67.5685 32.0553 67.444 31.7454 67.1949 31.4964C66.9459 31.2418 66.6305 31.1145 66.2487 31.1145C65.8724 31.1145 65.5569 31.2418 65.3024 31.4964C65.0533 31.7454 64.9288 32.0553 64.9288 32.426C64.9288 32.7913 65.0533 33.1012 65.3024 33.3557C65.5569 33.6048 65.8724 33.7293 66.2487 33.7293ZM66.2487 27.5701C66.6305 27.5701 66.9459 27.4456 67.1949 27.1966C67.444 26.942 67.5685 26.6321 67.5685 26.2669C67.5685 25.8961 67.444 25.5862 67.1949 25.3372C66.9459 25.0826 66.6305 24.9553 66.2487 24.9553C65.8724 24.9553 65.5569 25.0826 65.3024 25.3372C65.0533 25.5862 64.9288 25.8961 64.9288 26.2669C64.9288 26.6321 65.0533 26.942 65.3024 27.1966C65.5569 27.4456 65.8724 27.5701 66.2487 27.5701ZM75.8278 35.3396H77.8698V33.0403H79.4884V31.2722H77.8698V23.3616H74.8566C74.5245 23.8541 74.1925 24.3605 73.8605 24.8806C73.534 25.3953 73.2047 25.9182 72.8727 26.4495C72.5462 26.9752 72.2169 27.5092 71.8849 28.0515C71.5584 28.5883 71.2347 29.1279 70.9137 29.6702C70.5983 30.2125 70.2828 30.7521 69.9674 31.2888V33.0403H75.8278V35.3396ZM71.9596 31.322V31.1975C72.192 30.788 72.4327 30.3758 72.6818 29.9607C72.9308 29.5401 73.1826 29.1223 73.4371 28.7073C73.6917 28.2867 73.949 27.8689 74.2091 27.4539C74.4692 27.0388 74.7265 26.6321 74.9811 26.2337C75.2412 25.8352 75.493 25.4479 75.7365 25.0716H75.861V31.322H71.9596ZM84.444 35.3396H86.5773V23.3616H84.444L81.3146 25.5613V27.5701L84.2946 25.47H84.444V35.3396Z" fill="black"/>
<rect opacity="0.35" x="334" y="23.5" width="24" height="12" rx="3.8" stroke="black"/>
<path opacity="0.4" d="M359.5 27.7811V31.8566C360.305 31.5114 360.828 30.7085 360.828 29.8189C360.828 28.9293 360.305 28.1263 359.5 27.7811Z" fill="black"/>
<rect x="335.5" y="25" width="21" height="9" rx="2.5" fill="black"/>
<path fill-rule="evenodd" clip-rule="evenodd" d="M317.771 26.104C320.258 26.1041 322.65 27.0262 324.452 28.6797C324.588 28.8074 324.805 28.8058 324.939 28.6761L326.236 27.4126C326.304 27.3469 326.341 27.2578 326.341 27.1651C326.34 27.0724 326.302 26.9838 326.233 26.9188C321.502 22.5441 314.038 22.5441 309.307 26.9188C309.239 26.9837 309.2 27.0724 309.199 27.165C309.199 27.2577 309.236 27.3468 309.304 27.4126L310.602 28.6761C310.735 28.8059 310.952 28.8076 311.088 28.6797C312.891 27.0261 315.283 26.104 317.771 26.104ZM317.767 30.3243C319.124 30.3242 320.433 30.836 321.439 31.7601C321.576 31.8913 321.79 31.8884 321.923 31.7537L323.21 30.4344C323.278 30.3652 323.315 30.2713 323.314 30.1738C323.313 30.0762 323.274 29.9831 323.205 29.9153C320.141 27.0245 315.396 27.0245 312.332 29.9153C312.263 29.9831 312.224 30.0762 312.223 30.1738C312.222 30.2714 312.26 30.3653 312.327 30.4344L313.614 31.7537C313.747 31.8884 313.961 31.8913 314.097 31.7601C315.103 30.8366 316.411 30.3249 317.767 30.3243ZM320.292 33.1179C320.294 33.2232 320.256 33.3248 320.189 33.3986L318.012 35.8533C317.949 35.9255 317.862 35.9661 317.771 35.9661C317.68 35.9661 317.593 35.9255 317.529 35.8533L315.352 33.3986C315.285 33.3247 315.248 33.2231 315.25 33.1178C315.252 33.0124 315.293 32.9127 315.363 32.842C316.753 31.5282 318.789 31.5282 320.179 32.842C320.249 32.9127 320.29 33.0125 320.292 33.1179Z" fill="black"/>
<path fill-rule="evenodd" clip-rule="evenodd" d="M301.7 24.6821C301.7 24.049 301.222 23.5358 300.633 23.5358H299.567C298.978 23.5358 298.5 24.049 298.5 24.6821V34.616C298.5 35.2491 298.978 35.7622 299.567 35.7622H300.633C301.222 35.7622 301.7 35.2491 301.7 34.616V24.6821ZM294.266 25.9811H295.333C295.922 25.9811 296.399 26.5066 296.399 27.1548V34.5885C296.399 35.2367 295.922 35.7622 295.333 35.7622H294.266C293.677 35.7622 293.199 35.2367 293.199 34.5885V27.1548C293.199 26.5066 293.677 25.9811 294.266 25.9811ZM289.934 28.6302H288.867C288.278 28.6302 287.801 29.1623 287.801 29.8188V34.5735C287.801 35.23 288.278 35.7622 288.867 35.7622H289.934C290.523 35.7622 291.001 35.23 291.001 34.5735V29.8188C291.001 29.1623 290.523 28.6302 289.934 28.6302ZM284.633 31.0754H283.567C282.978 31.0754 282.5 31.6 282.5 32.2471V34.5905C282.5 35.2377 282.978 35.7622 283.567 35.7622H284.633C285.222 35.7622 285.7 35.2377 285.7 34.5905V32.2471C285.7 31.6 285.222 31.0754 284.633 31.0754Z" fill="black"/>
</svg>
