<svg width="76" height="18" viewBox="0 0 76 18" fill="none" xmlns="http://www.w3.org/2000/svg">
<path d="M9.5045 8.6105C10.3818 8.76717 11.126 9.22933 11.737 9.997C12.348 10.7647 12.6535 11.6342 12.6535 12.6055C12.6535 13.4358 12.4342 14.1878 11.9955 14.8615C11.5725 15.5195 10.9537 16.0443 10.139 16.436C9.32433 16.812 8.3765 17 7.2955 17H0.7625V0.667499H6.99C8.10233 0.667499 9.058 0.855499 9.857 1.2315C10.656 1.6075 11.2592 2.11667 11.6665 2.759C12.0738 3.38567 12.2775 4.09067 12.2775 4.874C12.2775 5.814 12.0268 6.59733 11.5255 7.224C11.0242 7.85067 10.3505 8.31283 9.5045 8.6105ZM3.4415 7.5295H6.755C7.63233 7.5295 8.31383 7.33367 8.7995 6.942C9.30083 6.53467 9.5515 5.955 9.5515 5.203C9.5515 4.46667 9.30083 3.89483 8.7995 3.4875C8.31383 3.0645 7.63233 2.853 6.755 2.853H3.4415V7.5295ZM7.0605 14.8145C7.96917 14.8145 8.682 14.5952 9.199 14.1565C9.716 13.7178 9.9745 13.1068 9.9745 12.3235C9.9745 11.5245 9.70033 10.89 9.152 10.42C8.60367 9.95 7.87517 9.715 6.9665 9.715H3.4415V14.8145H7.0605ZM24.8385 11.0032C24.8385 11.4321 24.8108 11.8194 24.7555 12.1652H16.0197C16.0889 13.0782 16.4278 13.8114 17.0365 14.3647C17.6452 14.9181 18.3922 15.1947 19.2775 15.1947C20.5502 15.1947 21.4493 14.6622 21.975 13.597H24.5272C24.1814 14.6483 23.552 15.5129 22.639 16.1907C21.7398 16.8548 20.6193 17.1868 19.2775 17.1868C18.1847 17.1868 17.2025 16.9447 16.331 16.4605C15.4733 15.9625 14.7955 15.2708 14.2975 14.3855C13.8133 13.4863 13.5712 12.4488 13.5712 11.273C13.5712 10.0972 13.8064 9.06658 14.2767 8.18125C14.7609 7.28208 15.4318 6.59042 16.2895 6.10625C17.161 5.62208 18.157 5.38 19.2775 5.38C20.3565 5.38 21.3179 5.61517 22.1617 6.0855C23.0056 6.55583 23.6627 7.21983 24.133 8.0775C24.6033 8.92133 24.8385 9.89658 24.8385 11.0032ZM22.3692 10.2562C22.3554 9.38475 22.0442 8.68617 21.4355 8.1605C20.8268 7.63483 20.0729 7.372 19.1737 7.372C18.3576 7.372 17.659 7.63483 17.078 8.1605C16.497 8.67233 16.1512 9.37092 16.0405 10.2562H22.3692ZM29.0443 7.4965V13.8252C29.0443 14.2541 29.1411 14.5653 29.3348 14.759C29.5423 14.9388 29.8881 15.0287 30.3723 15.0287H31.8248V17H29.9573C28.8921 17 28.0759 16.751 27.5088 16.253C26.9416 15.755 26.658 14.9457 26.658 13.8252V7.4965H25.3093V5.56675H26.658V2.724H29.0443V5.56675H31.8248V7.4965H29.0443ZM32.3346 11.2315C32.3346 10.0833 32.5698 9.06658 33.0401 8.18125C33.5243 7.29592 34.1744 6.61117 34.9906 6.127C35.8206 5.629 36.7336 5.38 37.7296 5.38C38.6288 5.38 39.4103 5.55983 40.0743 5.9195C40.7522 6.26533 41.2917 6.70108 41.6928 7.22675V5.56675H44.0791V17H41.6928V15.2985C41.2917 15.838 40.7453 16.2876 40.0536 16.6472C39.3619 17.0069 38.5734 17.1868 37.6881 17.1868C36.7059 17.1868 35.8068 16.9378 34.9906 16.4397C34.1744 15.9279 33.5243 15.2224 33.0401 14.3232C32.5698 13.4102 32.3346 12.3797 32.3346 11.2315ZM41.6928 11.273C41.6928 10.4845 41.5268 9.79975 41.1948 9.21875C40.8767 8.63775 40.4548 8.19508 39.9291 7.89075C39.4034 7.58642 38.8363 7.43425 38.2276 7.43425C37.6189 7.43425 37.0518 7.58642 36.5261 7.89075C36.0004 8.18125 35.5716 8.617 35.2396 9.198C34.9214 9.76517 34.7623 10.443 34.7623 11.2315C34.7623 12.02 34.9214 12.7117 35.2396 13.3065C35.5716 13.9013 36.0004 14.3578 36.5261 14.676C37.0656 14.9803 37.6328 15.1325 38.2276 15.1325C38.8363 15.1325 39.4034 14.9803 39.9291 14.676C40.4548 14.3717 40.8767 13.929 41.1948 13.348C41.5268 12.7532 41.6928 12.0615 41.6928 11.273ZM48.6697 1.645V17H46.3042V1.645H48.6697ZM50.105 11.2315C50.105 10.0833 50.3402 9.06658 50.8105 8.18125C51.2947 7.29592 51.9449 6.61117 52.761 6.127C53.591 5.629 54.504 5.38 55.5 5.38C56.3992 5.38 57.1808 5.55983 57.8448 5.9195C58.5226 6.26533 59.0621 6.70108 59.4633 7.22675V5.56675H61.8495V17H59.4633V15.2985C59.0621 15.838 58.5157 16.2876 57.824 16.6472C57.1324 17.0069 56.3439 17.1868 55.4585 17.1868C54.4764 17.1868 53.5772 16.9378 52.761 16.4397C51.9449 15.9279 51.2947 15.2224 50.8105 14.3232C50.3402 13.4102 50.105 12.3797 50.105 11.2315ZM59.4633 11.273C59.4633 10.4845 59.2973 9.79975 58.9653 9.21875C58.6471 8.63775 58.2252 8.19508 57.6995 7.89075C57.1739 7.58642 56.6067 7.43425 55.998 7.43425C55.3894 7.43425 54.8222 7.58642 54.2965 7.89075C53.7709 8.18125 53.342 8.617 53.01 9.198C52.6919 9.76517 52.5328 10.443 52.5328 11.2315C52.5328 12.02 52.6919 12.7117 53.01 13.3065C53.342 13.9013 53.7709 14.3578 54.2965 14.676C54.836 14.9803 55.4032 15.1325 55.998 15.1325C56.6067 15.1325 57.1739 14.9803 57.6995 14.676C58.2252 14.3717 58.6471 13.929 58.9653 13.348C59.2973 12.7532 59.4633 12.0615 59.4633 11.273ZM66.4401 7.26825C66.8413 6.71492 67.3877 6.26533 68.0794 5.9195C68.7849 5.55983 69.5665 5.38 70.4241 5.38C71.434 5.38 72.347 5.62208 73.1631 6.10625C73.9793 6.59042 74.6226 7.28208 75.0929 8.18125C75.5632 9.06658 75.7984 10.0833 75.7984 11.2315C75.7984 12.3797 75.5632 13.4102 75.0929 14.3232C74.6226 15.2224 73.9724 15.9279 73.1424 16.4397C72.3262 16.9378 71.4201 17.1868 70.4241 17.1868C69.5388 17.1868 68.7503 17.0138 68.0586 16.668C67.3808 16.3222 66.8413 15.8795 66.4401 15.34V17H64.0746V1.645H66.4401V7.26825ZM73.3914 11.2315C73.3914 10.443 73.2254 9.76517 72.8934 9.198C72.5752 8.617 72.1464 8.18125 71.6069 7.89075C71.0812 7.58642 70.5141 7.43425 69.9054 7.43425C69.3106 7.43425 68.7434 7.58642 68.2039 7.89075C67.6782 8.19508 67.2494 8.63775 66.9174 9.21875C66.5992 9.79975 66.4401 10.4845 66.4401 11.273C66.4401 12.0615 66.5992 12.7532 66.9174 13.348C67.2494 13.929 67.6782 14.3717 68.2039 14.676C68.7434 14.9803 69.3106 15.1325 69.9054 15.1325C70.5141 15.1325 71.0812 14.9803 71.6069 14.676C72.1464 14.3578 72.5752 13.9013 72.8934 13.3065C73.2254 12.7117 73.3914 12.02 73.3914 11.2315Z" fill="black"/>
</svg>
