<svg width="11" height="14" viewBox="0 0 11 14" fill="none" xmlns="http://www.w3.org/2000/svg">
<g clip-path="url(#clip0_118_954)">
<path d="M6.13623 0.852753C2.74552 0.852753 0 3.5256 0 6.82203C0 10.1184 2.74552 12.7913 6.13623 12.7913C7.80002 12.7913 9.30731 12.1464 10.4138 11.1018C10.551 10.9712 10.5867 10.7687 10.4989 10.6035C10.411 10.4382 10.2216 10.345 10.0321 10.3769C9.76306 10.4222 9.48851 10.4462 9.20572 10.4462C6.54532 10.4462 4.38734 8.34632 4.38734 5.75608C4.38734 4.00261 5.37573 2.47565 6.83909 1.67086C7.00656 1.57759 7.09167 1.39105 7.05049 1.20984C7.00931 1.02863 6.85007 0.892726 6.65788 0.876737C6.48492 0.863413 6.31195 0.855418 6.13623 0.855418V0.852753Z" fill="black"/>
</g>
<defs>
<clipPath id="clip0_118_954">
<rect width="10.5428" height="13.6441" fill="white"/>
</clipPath>
</defs>
</svg>
