<svg width="13" height="13" viewBox="0 0 13 13" fill="none" xmlns="http://www.w3.org/2000/svg">
<g clip-path="url(#clip0_1027_991)">
<path d="M13 6.5C13 2.90977 10.0902 0 6.5 0C2.90977 0 0 2.90977 0 6.5C0 9.54688 2.0998 12.1062 4.93086 12.8096V8.48555H3.59023V6.5H4.93086V5.64434C4.93086 3.43281 5.93125 2.40703 8.10469 2.40703C8.51602 2.40703 9.22695 2.48828 9.51895 2.56953V4.36719C9.3666 4.35195 9.1 4.3418 8.76738 4.3418C7.70098 4.3418 7.28965 4.74551 7.28965 5.79414V6.5H9.4123L9.04668 8.48555H7.28711V12.9518C10.5066 12.5633 13 9.82363 13 6.5Z" fill="white"/>
</g>
<defs>
<clipPath id="clip0_1027_991">
<rect width="13" height="13" fill="white"/>
</clipPath>
</defs>
</svg>
