<svg width="12" height="14" viewBox="0 0 12 14" fill="none" xmlns="http://www.w3.org/2000/svg">
<g clip-path="url(#clip0_1015_34)">
<path d="M6.00273 3.85549C4.29916 3.85549 2.92506 5.25823 2.92506 6.99729C2.92506 8.73635 4.29916 10.1391 6.00273 10.1391C7.70631 10.1391 9.08041 8.73635 9.08041 6.99729C9.08041 5.25823 7.70631 3.85549 6.00273 3.85549ZM6.00273 9.03987C4.90184 9.03987 4.00184 8.12385 4.00184 6.99729C4.00184 5.87073 4.89916 4.95471 6.00273 4.95471C7.10631 4.95471 8.00363 5.87073 8.00363 6.99729C8.00363 8.12385 7.10363 9.03987 6.00273 9.03987ZM9.92416 3.72698C9.92416 4.1344 9.60273 4.45979 9.20631 4.45979C8.8072 4.45979 8.48845 4.13166 8.48845 3.72698C8.48845 3.32229 8.80988 2.99416 9.20631 2.99416C9.60273 2.99416 9.92416 3.32229 9.92416 3.72698ZM11.9626 4.47073C11.917 3.48909 11.6974 2.61956 10.9929 1.90315C10.2911 1.18674 9.43934 0.962524 8.47773 0.913306C7.48666 0.855884 4.51613 0.855884 3.52506 0.913306C2.56613 0.95979 1.71434 1.18401 1.00988 1.90041C0.305413 2.61682 0.0884487 3.48635 0.0402344 4.46799C-0.0160156 5.47971 -0.0160156 8.51213 0.0402344 9.52385C0.0857701 10.5055 0.305413 11.375 1.00988 12.0914C1.71434 12.8078 2.56345 13.0321 3.52506 13.0813C4.51613 13.1387 7.48666 13.1387 8.47773 13.0813C9.43934 13.0348 10.2911 12.8106 10.9929 12.0914C11.6947 11.375 11.9143 10.5055 11.9626 9.52385C12.0188 8.51213 12.0188 5.48245 11.9626 4.47073ZM10.6822 10.6094C10.4733 11.1453 10.0688 11.5582 9.54113 11.7742C8.75095 12.0942 6.87595 12.0203 6.00273 12.0203C5.12952 12.0203 3.25184 12.0914 2.46434 11.7742C1.93934 11.561 1.53488 11.1481 1.32327 10.6094C1.00988 9.80276 1.0822 7.8887 1.0822 6.99729C1.0822 6.10588 1.01256 4.18909 1.32327 3.38518C1.5322 2.84924 1.93666 2.43635 2.46434 2.22034C3.25452 1.90041 5.12952 1.97424 6.00273 1.97424C6.87595 1.97424 8.75363 1.90315 9.54113 2.22034C10.0661 2.43362 10.4706 2.84651 10.6822 3.38518C10.9956 4.19182 10.9233 6.10588 10.9233 6.99729C10.9233 7.8887 10.9956 9.80549 10.6822 10.6094Z" fill="white"/>
</g>
<defs>
<clipPath id="clip0_1015_34">
<rect width="12" height="14" fill="white"/>
</clipPath>
</defs>
</svg>
