<svg width="12" height="13" viewBox="0 0 12 13" fill="none" xmlns="http://www.w3.org/2000/svg">
<path d="M2.68661 11.375H0.198214V3.78066H2.68661V11.375ZM1.44107 2.74473C0.645536 2.74473 0 2.12012 0 1.36602C0 1.00373 0.151827 0.656274 0.42208 0.400097C0.692333 0.143919 1.05888 0 1.44107 0C1.82327 0 2.18981 0.143919 2.46006 0.400097C2.73032 0.656274 2.88214 1.00373 2.88214 1.36602C2.88214 2.12012 2.23661 2.74473 1.44107 2.74473ZM11.9973 11.375H9.51429V7.67812C9.51429 6.79707 9.49554 5.66719 8.22054 5.66719C6.92679 5.66719 6.72857 6.62441 6.72857 7.61465V11.375H4.24286V3.78066H6.62946V4.8166H6.66429C6.99643 4.21992 7.80804 3.59023 9.01875 3.59023C11.5366 3.59023 12 5.16191 12 7.20332V11.375H11.9973Z" fill="white"/>
</svg>
