<svg width="15" height="17" viewBox="0 0 15 17" fill="none" xmlns="http://www.w3.org/2000/svg">
<g clip-path="url(#clip0_1038_1009)">
<path d="M14 6.14941C12.6237 6.15218 11.2813 5.74942 10.1625 4.99805V10.2363C10.1622 11.2065 9.84591 12.1534 9.25598 12.9505C8.66605 13.7476 7.83059 14.3568 6.86134 14.6966C5.89208 15.0365 4.83525 15.0908 3.83217 14.8524C2.82909 14.6139 1.92759 14.0939 1.24825 13.3621C0.568901 12.6303 0.144092 11.7214 0.0306358 10.7571C-0.0828202 9.79282 0.120486 8.81903 0.613363 7.96598C1.10624 7.11293 1.86519 6.4213 2.78871 5.98359C3.71223 5.54588 4.75629 5.38295 5.78125 5.5166V8.15039C5.31259 8.01208 4.80929 8.01612 4.34322 8.16195C3.87715 8.30778 3.47215 8.58793 3.18603 8.96241C2.89992 9.33689 2.74732 9.78654 2.75004 10.2472C2.75276 10.7078 2.91064 11.1558 3.20116 11.5273C3.49167 11.8988 3.89995 12.1748 4.36771 12.3157C4.83547 12.4567 5.33879 12.4556 5.8058 12.3124C6.2728 12.1692 6.67962 11.8914 6.96817 11.5186C7.25671 11.1457 7.41223 10.697 7.41251 10.2363V0H10.1625C10.161 0.218046 10.1808 0.435763 10.2219 0.650391C10.3175 1.12881 10.5162 1.58392 10.8058 1.98791C11.0954 2.3919 11.4699 2.73628 11.9063 3C12.5274 3.38462 13.2556 3.58941 14 3.58887V6.14941Z" fill="#26F4EE"/>
</g>
<g clip-path="url(#clip1_1038_1009)">
<path d="M15 7.55937C13.722 7.56232 12.4755 7.13271 11.4366 6.33125V11.9187C11.4363 12.9536 11.1426 13.9636 10.5948 14.8139C10.047 15.6641 9.27126 16.3139 8.37124 16.6764C7.47122 17.0389 6.48987 17.0969 5.55844 16.8425C4.62701 16.5881 3.78991 16.0335 3.15909 15.2529C2.52826 14.4723 2.1338 13.5029 2.02845 12.4743C1.9231 11.4457 2.11188 10.407 2.56955 9.49704C3.02722 8.58713 3.73196 7.84939 4.58952 7.3825C5.44707 6.9156 6.41655 6.74182 7.36831 6.88438V9.69375C6.93312 9.54622 6.46577 9.55053 6.03299 9.70608C5.60021 9.86163 5.22414 10.1605 4.95846 10.5599C4.69278 10.9593 4.55109 11.439 4.55361 11.9303C4.55613 12.4216 4.70274 12.8996 4.9725 13.2958C5.24226 13.6921 5.62138 13.9864 6.05573 14.1368C6.49008 14.2872 6.95745 14.2859 7.3911 14.1332C7.82475 13.9805 8.20251 13.6842 8.47044 13.2865C8.73837 12.8888 8.88278 12.4101 8.88304 11.9187V1H11.4366C11.4352 1.23258 11.4536 1.46481 11.4917 1.69375C11.5806 2.20406 11.7651 2.68951 12.034 3.12044C12.3029 3.55136 12.6506 3.91869 13.0558 4.2C13.6326 4.61026 14.3088 4.82871 15 4.82812V7.55937Z" fill="#FB2C53"/>
</g>
<g clip-path="url(#clip2_1038_1009)">
<path d="M14 7.14941C12.722 7.15218 11.4755 6.74942 10.4366 5.99805V11.2363C10.4363 12.2065 10.1426 13.1534 9.59484 13.9505C9.04705 14.7476 8.27126 15.3568 7.37124 15.6966C6.47122 16.0365 5.48987 16.0908 4.55844 15.8524C3.62701 15.6139 2.78991 15.0939 2.15909 14.3621C1.52826 13.6303 1.1338 12.7214 1.02845 11.7571C0.923096 10.7928 1.11188 9.81903 1.56955 8.96598C2.02722 8.11293 2.73196 7.4213 3.58952 6.98359C4.44707 6.54588 5.41655 6.38295 6.36831 6.5166V9.15039C5.93312 9.01208 5.46577 9.01612 5.03299 9.16195C4.60021 9.30778 4.22414 9.58793 3.95846 9.96241C3.69278 10.3369 3.55109 10.7865 3.55361 11.2472C3.55613 11.7078 3.70274 12.1558 3.9725 12.5273C4.24226 12.8988 4.62138 13.1748 5.05573 13.3157C5.49008 13.4567 5.95745 13.4556 6.3911 13.3124C6.82475 13.1692 7.20251 12.8914 7.47044 12.5186C7.73837 12.1457 7.88278 11.697 7.88304 11.2363V1H10.4366C10.4352 1.21805 10.4536 1.43576 10.4917 1.65039C10.5806 2.12881 10.7651 2.58392 11.034 2.98791C11.3029 3.3919 11.6506 3.73628 12.0558 4C12.6326 4.38462 13.3088 4.58941 14 4.58887V7.14941Z" fill="black"/>
</g>
<defs>
<clipPath id="clip0_1038_1009">
<rect width="14" height="15" fill="white"/>
</clipPath>
<clipPath id="clip1_1038_1009">
<rect width="13" height="16" fill="white" transform="translate(2 1)"/>
</clipPath>
<clipPath id="clip2_1038_1009">
<rect width="13" height="15" fill="white" transform="translate(1 1)"/>
</clipPath>
</defs>
</svg>
