<svg width="13" height="15" viewBox="0 0 13 15" fill="none" xmlns="http://www.w3.org/2000/svg">
<g clip-path="url(#clip0_1027_996)">
<path d="M13 6.14941C11.722 6.15218 10.4755 5.74942 9.43661 4.99805V10.2363C9.43631 11.2065 9.14263 12.1534 8.59484 12.9505C8.04705 13.7476 7.27126 14.3568 6.37124 14.6966C5.47122 15.0365 4.48987 15.0908 3.55844 14.8524C2.62701 14.6139 1.78991 14.0939 1.15909 13.3621C0.528265 12.6303 0.1338 11.7214 0.0284475 10.7571C-0.0769045 9.79282 0.111879 8.81903 0.569551 7.96598C1.02722 7.11293 1.73196 6.4213 2.58952 5.98359C3.44707 5.54588 4.41655 5.38295 5.36831 5.5166V8.15039C4.93312 8.01208 4.46577 8.01612 4.03299 8.16195C3.60021 8.30778 3.22414 8.58793 2.95846 8.96241C2.69278 9.33689 2.55109 9.78654 2.55361 10.2472C2.55613 10.7078 2.70274 11.1558 2.9725 11.5273C3.24226 11.8988 3.62138 12.1748 4.05573 12.3157C4.49008 12.4567 4.95745 12.4556 5.3911 12.3124C5.82475 12.1692 6.20251 11.8914 6.47044 11.5186C6.73837 11.1457 6.88278 10.697 6.88304 10.2363V0H9.43661C9.43517 0.218046 9.45363 0.435763 9.49175 0.650391C9.58055 1.12881 9.76505 1.58392 10.034 1.98791C10.3029 2.3919 10.6506 2.73628 11.0558 3C11.6326 3.38462 12.3088 3.58941 13 3.58887V6.14941Z" fill="white"/>
</g>
<defs>
<clipPath id="clip0_1027_996">
<rect width="13" height="15" fill="white"/>
</clipPath>
</defs>
</svg>
