<svg width="13" height="13" viewBox="0 0 13 13" fill="none" xmlns="http://www.w3.org/2000/svg">
<path d="M11.6645 3.85176C11.6721 3.96602 11.6721 4.08281 11.6721 4.19707C11.6721 7.71875 8.99082 11.7787 4.09043 11.7787C2.57969 11.7787 1.17813 11.342 0 10.5828C0.213281 10.6082 0.421484 10.6158 0.642383 10.6158C1.88906 10.6158 3.03418 10.1943 3.95078 9.47832C2.78027 9.45293 1.79766 8.68613 1.45996 7.62988C1.625 7.65527 1.79004 7.67051 1.9627 7.67051C2.20137 7.67051 2.44004 7.6375 2.66348 7.5791C1.44219 7.33281 0.528125 6.25879 0.528125 4.96387V4.93086C0.883594 5.12891 1.29492 5.25332 1.73164 5.26855C1.01309 4.79121 0.543359 3.97363 0.543359 3.04941C0.543359 2.5543 0.675391 2.0998 0.906445 1.70371C2.21914 3.32109 4.18945 4.37734 6.40098 4.4916C6.36035 4.29355 6.33496 4.08789 6.33496 3.88223C6.33496 2.41465 7.52324 1.21875 8.99844 1.21875C9.76523 1.21875 10.4584 1.54121 10.9459 2.05918C11.5477 1.94492 12.1266 1.72148 12.6369 1.4168C12.4389 2.03633 12.0174 2.5543 11.4664 2.88437C12.0021 2.82598 12.5227 2.67871 13 2.47305C12.6369 3.00117 12.1824 3.4709 11.6645 3.85176Z" fill="white"/>
</svg>
